<svg xmlns="http://www.w3.org/2000/svg" viewBox="0 0 480 560" role="img" aria-label="Studio founder portrait illustration">
  <rect width="480" height="560" fill="#ffee8f"/>
  <circle cx="400" cy="90" r="90" fill="#feadd2" opacity="0.8"/>
  <circle cx="60" cy="500" r="110" fill="#edbbf9" opacity="0.8"/>
  <!-- portrait -->
  <circle cx="240" cy="230" r="95" fill="#e4a883"/>
  <path d="M145 232 q-8 -120 95 -120 q103 0 95 120 q-6 -76 -95 -76 q-89 0 -95 76z" fill="#11193b"/>
  <circle cx="205" cy="230" r="8" fill="#11193b"/>
  <circle cx="275" cy="230" r="8" fill="#11193b"/>
  <path d="M215 275 q25 20 50 0" fill="none" stroke="#11193b" stroke-width="6" stroke-linecap="round"/>
  <!-- body -->
  <path d="M110 560 q0 -150 130 -150 q130 0 130 150z" fill="#c71e70"/>
  <path d="M205 415 q35 25 70 0 l-14 42 q-21 14 -42 0z" fill="#9c1657"/>
  <!-- earrings + sparkle -->
  <circle cx="146" cy="252" r="7" fill="#ffdf2b"/>
  <circle cx="334" cy="252" r="7" fill="#ffdf2b"/>
  <path d="M92 130 l9 20 20 9 -20 9 -9 20 -9 -20 -20 -9 20 -9z" fill="#f889e7"/>
  <path d="M390 300 l7 16 16 7 -16 7 -7 16 -7 -16 -16 -7 16 -7z" fill="#11193b"/>
</svg>
